<svg xmlns="http://www.w3.org/2000/svg" width="900" height="290" style="font-family: -apple-system, BlinkMacSystemFont, 'Segoe UI', Helvetica, Arial, sans-serif;">
  <rect width="100%" height="100%" fill="white"/>
  <g>
    <line x1="40" y1="220.00" x2="860" y2="220.00" stroke="#e5e7eb"/><text x="32" y="224.00" font-size="10" fill="#111827" text-anchor="end">0</text><line x1="40" y1="175.00" x2="860" y2="175.00" stroke="#e5e7eb"/><text x="32" y="179.00" font-size="10" fill="#111827" text-anchor="end">12.5k</text><line x1="40" y1="130.00" x2="860" y2="130.00" stroke="#e5e7eb"/><text x="32" y="134.00" font-size="10" fill="#111827" text-anchor="end">25k</text><line x1="40" y1="85.00" x2="860" y2="85.00" stroke="#e5e7eb"/><text x="32" y="89.00" font-size="10" fill="#111827" text-anchor="end">37.5k</text><line x1="40" y1="40.00" x2="860" y2="40.00" stroke="#e5e7eb"/><text x="32" y="44.00" font-size="10" fill="#111827" text-anchor="end">50k</text>
    <line x1="40.00" y1="40" x2="40.00" y2="220" stroke="#e5e7eb" opacity="0.5"/><line x1="110.29" y1="40" x2="110.29" y2="220" stroke="#e5e7eb" opacity="0.5"/><line x1="180.57" y1="40" x2="180.57" y2="220" stroke="#e5e7eb" opacity="0.5"/><line x1="250.86" y1="40" x2="250.86" y2="220" stroke="#e5e7eb" opacity="0.5"/><line x1="321.14" y1="40" x2="321.14" y2="220" stroke="#e5e7eb" opacity="0.5"/><line x1="391.43" y1="40" x2="391.43" y2="220" stroke="#e5e7eb" opacity="0.5"/><line x1="461.71" y1="40" x2="461.71" y2="220" stroke="#e5e7eb" opacity="0.5"/><line x1="532.00" y1="40" x2="532.00" y2="220" stroke="#e5e7eb" opacity="0.5"/><line x1="602.29" y1="40" x2="602.29" y2="220" stroke="#e5e7eb" opacity="0.5"/><line x1="672.57" y1="40" x2="672.57" y2="220" stroke="#e5e7eb" opacity="0.5"/><line x1="742.86" y1="40" x2="742.86" y2="220" stroke="#e5e7eb" opacity="0.5"/><line x1="813.14" y1="40" x2="813.14" y2="220" stroke="#e5e7eb" opacity="0.5"/>
    <line x1="40" y1="220" x2="860" y2="220" stroke="#9ca3af"/>
    <line x1="40" y1="40"   x2="40"   y2="220" stroke="#9ca3af"/>
    <path d="M 40.00 220.00 L 63.43 219.67 L 86.86 215.41 L 110.29 200.39 L 133.71 200.37 L 157.14 200.33 L 180.57 208.05 L 204.00 200.42 L 227.43 199.79 L 250.86 194.79 L 274.29 194.79 L 297.71 194.77 L 321.14 194.78 L 344.57 194.75 L 368.00 193.19 L 391.43 193.19 L 414.86 192.88 L 438.29 192.88 L 461.71 175.99 L 485.14 175.98 L 508.57 175.96 L 532.00 175.96 L 555.43 175.70 L 578.86 175.79 L 602.29 175.84 L 625.71 49.67 L 649.14 49.67 L 672.57 49.67 L 696.00 175.99 L 719.43 175.99 L 742.86 175.94 L 766.29 175.94 L 789.71 176.22 L 813.14 176.22 L 836.57 176.24 L 860.00 176.24" fill="none" stroke="#111827" stroke-width="2"/>
    <circle cx="860.00" cy="176.24" r="3" fill="#111827"/>
    <text x="40.00" y="235.00" font-size="9" fill="#111827" text-anchor="middle" transform="rotate(-45 40.00 235.00)">15:18</text><text x="110.29" y="235.00" font-size="9" fill="#111827" text-anchor="middle" transform="rotate(-45 110.29 235.00)">12:54</text><text x="180.57" y="235.00" font-size="9" fill="#111827" text-anchor="middle" transform="rotate(-45 180.57 235.00)">13:20</text><text x="250.86" y="235.00" font-size="9" fill="#111827" text-anchor="middle" transform="rotate(-45 250.86 235.00)">19:02</text><text x="321.14" y="235.00" font-size="9" fill="#111827" text-anchor="middle" transform="rotate(-45 321.14 235.00)">19:07</text><text x="391.43" y="235.00" font-size="9" fill="#111827" text-anchor="middle" transform="rotate(-45 391.43 235.00)">19:20</text><text x="461.71" y="235.00" font-size="9" fill="#111827" text-anchor="middle" transform="rotate(-45 461.71 235.00)">00:24</text><text x="532.00" y="235.00" font-size="9" fill="#111827" text-anchor="middle" transform="rotate(-45 532.00 235.00)">11:32</text><text x="602.29" y="235.00" font-size="9" fill="#111827" text-anchor="middle" transform="rotate(-45 602.29 235.00)">12:03</text><text x="672.57" y="235.00" font-size="9" fill="#111827" text-anchor="middle" transform="rotate(-45 672.57 235.00)">18:07</text><text x="742.86" y="235.00" font-size="9" fill="#111827" text-anchor="middle" transform="rotate(-45 742.86 235.00)">16:34</text><text x="813.14" y="235.00" font-size="9" fill="#111827" text-anchor="middle" transform="rotate(-45 813.14 235.00)">20:50</text>
  </g>
</svg>